<svg width="32" height="32" viewBox="0 0 32 32" fill="none" xmlns="http://www.w3.org/2000/svg">
<g id="ri:linkedin-fill">
<path id="Vector" d="M9.25332 6.66678C9.25296 7.37402 8.97167 8.05216 8.47133 8.55201C7.97098 9.05185 7.29256 9.33247 6.58532 9.33211C5.87807 9.33176 5.19994 9.05047 4.70009 8.55012C4.20024 8.04977 3.91963 7.37136 3.91998 6.66411C3.92034 5.95687 4.20163 5.27873 4.70197 4.77889C5.20232 4.27904 5.88074 3.99843 6.58798 3.99878C7.29523 3.99913 7.97336 4.28042 8.47321 4.78077C8.97306 5.28112 9.25367 5.95954 9.25332 6.66678ZM9.33332 11.3068H3.99998V28.0001H9.33332V11.3068ZM17.76 11.3068H12.4533V28.0001H17.7066V19.2401C17.7066 14.3601 24.0667 13.9068 24.0667 19.2401V28.0001H29.3333V17.4268C29.3333 9.20011 19.92 9.50678 17.7066 13.5468L17.76 11.3068Z" fill="#E41476"/>
</g>
</svg>
