<svg width="24" height="25" viewBox="0 0 24 25" fill="none" xmlns="http://www.w3.org/2000/svg">
<g id="ph:link-bold" clip-path="url(#clip0_278_4786)">
<path id="Vector" d="M13.006 19.6394C13.1402 19.7731 13.2467 19.932 13.3194 20.107C13.3921 20.282 13.4295 20.4696 13.4295 20.659C13.4295 20.8485 13.3921 21.0361 13.3194 21.2111C13.2467 21.386 13.1402 21.5449 13.006 21.6787L12.2933 22.3912C10.9428 23.7414 9.11115 24.5 7.20126 24.5C5.29136 24.5 3.4597 23.7414 2.1092 22.3912C0.758702 21.041 0 19.2097 0 17.3002C0 15.3907 0.758702 13.5594 2.1092 12.2091L5.00318 9.31695C6.30077 8.01641 8.04663 7.26113 9.88313 7.20582C11.7196 7.15051 13.5078 7.79935 14.8813 9.01945C15.0231 9.14547 15.1387 9.29819 15.2215 9.46888C15.3043 9.63957 15.3526 9.82489 15.3638 10.0143C15.3749 10.2036 15.3486 10.3933 15.2864 10.5725C15.2243 10.7518 15.1274 10.917 15.0013 11.0587C14.8753 11.2005 14.7225 11.3161 14.5518 11.3988C14.3811 11.4816 14.1957 11.5299 14.0063 11.5411C13.8169 11.5522 13.6272 11.5259 13.4479 11.4638C13.2687 11.4016 13.1034 11.3047 12.9616 11.1787C12.138 10.4473 11.0659 10.0583 9.96483 10.091C8.86373 10.1238 7.81676 10.576 7.03808 11.355L4.1465 14.2436C3.33633 15.0537 2.88118 16.1523 2.88118 17.2978C2.88118 18.4433 3.33633 19.5419 4.1465 20.3519C4.95667 21.1619 6.0555 21.617 7.20126 21.617C8.34701 21.617 9.44584 21.1619 10.256 20.3519L10.9687 19.6394C11.1024 19.5055 11.2612 19.3994 11.436 19.3269C11.6108 19.2545 11.7981 19.2172 11.9874 19.2172C12.1766 19.2172 12.3639 19.2545 12.5387 19.3269C12.7135 19.3994 12.8723 19.5055 13.006 19.6394ZM21.8943 2.60527C20.5427 1.25712 18.7115 0.5 16.8023 0.5C14.8931 0.5 13.0618 1.25712 11.7102 2.60527L10.9975 3.31782C10.727 3.58825 10.5751 3.95503 10.5751 4.33747C10.5751 4.71991 10.727 5.08669 10.9975 5.35712C11.268 5.62754 11.6348 5.77947 12.0174 5.77947C12.3999 5.77947 12.7667 5.62754 13.0372 5.35712L13.7499 4.64456C14.5601 3.83455 15.6589 3.37949 16.8047 3.37949C17.9504 3.37949 19.0492 3.83455 19.8594 4.64456C20.6696 5.45457 21.1247 6.55318 21.1247 7.69871C21.1247 8.84423 20.6696 9.94284 19.8594 10.7528L16.9666 13.6462C16.1873 14.425 15.1397 14.8765 14.0383 14.9084C12.937 14.9403 11.865 14.5501 11.0419 13.8178C10.9001 13.6918 10.7348 13.5949 10.5556 13.5327C10.3763 13.4705 10.1866 13.4443 9.9972 13.4554C9.80779 13.4666 9.62244 13.5149 9.45171 13.5976C9.28099 13.6804 9.12824 13.796 9.00219 13.9377C8.87614 14.0795 8.77926 14.2447 8.71707 14.424C8.65488 14.6032 8.62861 14.7929 8.63975 14.9822C8.65089 15.1716 8.69923 15.3569 8.782 15.5276C8.86478 15.6983 8.98037 15.851 9.12218 15.977C10.4948 17.1969 12.2817 17.8461 14.1174 17.7919C15.953 17.7377 17.6985 16.9842 18.9967 15.6855L21.8907 12.7933C23.2407 11.4423 23.9993 9.61095 24 7.70125C24.0007 5.79155 23.2434 3.95962 21.8943 2.60767V2.60527Z" fill="#FCFEF9"/>
</g>
<defs>
<clipPath id="clip0_278_4786">
<rect width="24" height="24" fill="white" transform="translate(0 0.5)"/>
</clipPath>
</defs>
</svg>
