<svg width="42" height="40" viewBox="0 0 42 40" fill="none" xmlns="http://www.w3.org/2000/svg">
<g id="logos:redux" clip-path="url(#clip0_485_1197)">
<path id="Vector" d="M29.0788 27.8251C30.6275 27.6648 31.8025 26.3297 31.749 24.7274C31.6957 23.1252 30.3605 21.8434 28.7584 21.8434H28.6516C26.9959 21.8969 25.7143 23.2854 25.7677 24.941C25.8211 25.7421 26.1415 26.4364 26.6221 26.9171C24.8064 30.4954 22.0293 33.1123 17.8638 35.302C15.0333 36.7974 12.0961 37.3315 9.15885 36.9577C6.75557 36.6372 4.88639 35.5692 3.71131 33.8066C2.00246 31.1897 1.84229 28.359 3.28426 25.5285C4.29901 23.499 5.90098 22.0036 6.91574 21.2559C6.70213 20.5616 6.38164 19.3867 6.22147 18.5323C-1.5223 24.14 -0.721149 31.7238 1.62869 35.302C3.39098 37.9725 6.96918 39.628 10.9211 39.628C11.9892 39.628 13.0572 39.5212 14.1254 39.2543C20.9613 37.919 26.1416 33.86 29.0788 27.8251ZM38.4782 21.2026C34.4193 16.4493 28.438 13.8325 21.6021 13.8325H20.7477C20.267 12.8711 19.2523 12.2302 18.1308 12.2302H18.0239C16.3685 12.2836 15.0869 13.6721 15.1402 15.3279C15.1936 16.93 16.5287 18.2118 18.1308 18.2118H18.2375C19.4125 18.1584 20.4272 17.4107 20.8544 16.3959H21.8157C25.8746 16.3959 29.7197 17.5708 33.1911 19.8674C35.8613 21.6298 37.7839 23.9264 38.852 26.7034C39.7598 28.9466 39.7064 31.1362 38.7451 33.0056C37.2498 35.8361 34.7398 37.3849 31.4287 37.3849C29.2925 37.3849 27.2631 36.7439 26.1949 36.2633C25.6075 36.7974 24.5393 37.6518 23.7916 38.1861C26.0882 39.2541 28.438 39.8416 30.681 39.8416C35.8079 39.8416 39.5997 37.011 41.0416 34.1805C42.5903 31.0828 42.4834 25.7421 38.4782 21.2026ZM11.3484 28.7328C11.4018 30.3351 12.7369 31.6167 14.339 31.6167H14.4459C16.1015 31.5634 17.3831 30.1748 17.3297 28.5192C17.2764 26.9169 15.9411 25.6352 14.339 25.6352H14.2323C14.1254 25.6352 13.9651 25.6352 13.8585 25.6885C11.6688 22.0569 10.761 18.1049 11.0815 13.8323C11.2949 10.6279 12.3631 7.85066 14.2323 5.5541C15.781 3.57803 18.7716 2.61672 20.8011 2.56344C26.462 2.45656 28.8651 9.50623 29.0254 12.3369C29.7197 12.497 30.8946 12.871 31.6957 13.138C31.0548 4.48623 25.7143 0 20.5875 0C15.781 0 11.3484 3.47148 9.5859 8.59853C7.12934 15.4346 8.73147 22.0036 11.7221 27.1841C11.4552 27.5579 11.2949 28.1452 11.3484 28.7328Z" fill="#FCFEF9"/>
</g>
<defs>
<clipPath id="clip0_485_1197">
<rect width="41.9672" height="40" fill="white"/>
</clipPath>
</defs>
</svg>
