<svg width="46" height="40" viewBox="0 0 46 40" fill="none" xmlns="http://www.w3.org/2000/svg">
<g id="devicon:react-wordmark" clip-path="url(#clip0_485_1230)">
<g id="Group">
<path id="Vector" d="M22.545 24.0704C24.8052 24.0704 26.6375 22.2382 26.6375 19.978C26.6375 17.7179 24.8052 15.8856 22.545 15.8856C20.2849 15.8856 18.4526 17.7179 18.4526 19.978C18.4526 22.2382 20.2849 24.0704 22.545 24.0704Z" fill="#FCFEF9"/>
<path id="Vector_2" d="M22.5457 35.0275C25.758 38.1518 28.9263 40 31.4786 40C32.3147 40 33.1068 39.824 33.7668 39.4279C36.055 38.1078 36.8911 34.8075 36.0991 30.099C35.967 29.2629 35.791 28.4268 35.571 27.5468C36.4511 27.2827 37.2432 27.0187 38.0352 26.7547C42.4797 25.0385 44.9439 22.6623 44.9439 20.066C44.9439 17.4257 42.4797 15.0495 38.0352 13.3773C37.2432 13.0693 36.4511 12.8053 35.571 12.5853C35.791 11.7052 35.967 10.8691 36.0991 10.033C36.8471 5.23652 36.011 1.89219 33.7228 0.572057C33.0628 0.176018 32.2707 0 31.4346 0C28.9263 0 25.714 1.84818 22.5017 4.9725C19.3334 1.84818 16.1651 0 13.6128 0C12.7767 0 11.9846 0.176018 11.3246 0.572057C9.03635 1.89219 8.20027 5.19252 8.99234 9.90099C9.12436 10.7371 9.30038 11.5732 9.5204 12.4532C8.64031 12.7173 7.84823 12.9813 7.05615 13.2453C2.61171 14.9615 0.147461 17.3377 0.147461 19.934C0.147461 22.5743 2.61171 24.9505 7.05615 26.6227C7.84823 26.9307 8.64031 27.1947 9.5204 27.4147C9.30038 28.2948 9.12436 29.1309 8.99234 29.967C8.24427 34.6755 9.08035 38.0198 11.3246 39.2959C11.9846 39.692 12.7767 39.868 13.6128 39.868C16.1651 39.956 19.3334 38.1078 22.5457 35.0275ZM20.0815 29.0869C20.8735 29.1309 21.7096 29.1309 22.5457 29.1309C23.3818 29.1309 24.2179 29.1309 25.0099 29.0869C24.2179 30.143 23.3818 31.1111 22.5457 32.0352C21.7096 31.1111 20.8735 30.143 20.0815 29.0869ZM14.6249 24.5545C15.065 25.3025 15.461 26.0066 15.945 26.7107C14.5809 26.5347 13.3048 26.3146 12.0727 26.0506C12.4687 24.8625 12.9087 23.6304 13.4368 22.3982C13.7888 23.1023 14.1849 23.8504 14.6249 24.5545ZM12.0727 13.9494C13.3048 13.6854 14.5809 13.4653 15.945 13.2893C15.505 13.9934 15.065 14.6975 14.6249 15.4455C14.1849 16.1936 13.7888 16.8977 13.4368 17.6458C12.8647 16.3696 12.4247 15.1375 12.0727 13.9494ZM14.4929 19.978C15.065 18.7899 15.681 17.6018 16.3851 16.4136C17.0452 15.2695 17.7932 14.1254 18.5413 12.9813C19.8614 12.8933 21.1816 12.8493 22.5457 12.8493C23.9538 12.8493 25.274 12.8933 26.5501 12.9813C27.3422 14.1254 28.0462 15.2695 28.7063 16.4136C29.4104 17.6018 30.0264 18.7899 30.5985 19.978C30.0264 21.1661 29.4104 22.3542 28.7063 23.5424C28.0462 24.6865 27.2982 25.8306 26.5501 26.9747C25.23 27.0627 23.9098 27.1067 22.5457 27.1067C21.1376 27.1067 19.8174 27.0627 18.5413 26.9747C17.7492 25.8306 17.0452 24.6865 16.3851 23.5424C15.681 22.3542 15.065 21.1661 14.4929 19.978ZM31.6986 17.6018L30.5105 15.4015C30.0704 14.6535 29.6744 13.9494 29.1904 13.2453C30.5545 13.4213 31.8306 13.6414 33.0628 13.9054C32.6667 15.1375 32.2267 16.3696 31.6986 17.6018ZM31.6986 22.3542C32.2267 23.5864 32.6667 24.8185 33.0628 26.0066C31.8306 26.2706 30.5545 26.4906 29.1904 26.6667C29.6304 25.9626 30.0704 25.2585 30.5105 24.5105C30.9065 23.8504 31.3026 23.1023 31.6986 22.3542ZM32.7107 37.6238C32.3587 37.8438 31.9186 37.9318 31.4346 37.9318C29.2784 37.9318 26.5941 36.1716 23.9538 33.5314C25.23 32.1672 26.4621 30.6271 27.6942 28.9109C29.7624 28.7349 31.7426 28.4268 33.5908 27.9868C33.8108 28.7789 33.9428 29.571 34.0749 30.363C34.6909 34.1034 34.2069 36.7877 32.7107 37.6238ZM34.9989 14.4334C39.9274 15.8416 42.8757 17.9978 42.8757 19.978C42.8757 21.6942 40.8515 23.4103 37.2872 24.7745C36.5831 25.0385 35.791 25.3025 34.9989 25.5226C34.4269 23.7184 33.7228 21.8702 32.8427 19.978C33.7228 18.0858 34.4709 16.2376 34.9989 14.4334ZM31.4786 2.0242C31.9626 2.0242 32.3587 2.11221 32.7547 2.33223C34.2069 3.16832 34.7349 5.80858 34.1189 9.59296C33.9868 10.341 33.8108 11.1331 33.6348 11.9692C31.7866 11.5732 29.8064 11.2651 27.7382 11.0451C26.5501 9.32893 25.274 7.78878 23.9978 6.42464C26.6381 3.82838 29.3224 2.0242 31.4786 2.0242ZM25.0099 10.8691C24.2179 10.8251 23.3818 10.8251 22.5457 10.8251C21.7096 10.8251 20.8735 10.8251 20.0815 10.8691C20.8735 9.81298 21.7096 8.84488 22.5457 7.92079C23.3818 8.84488 24.2179 9.85699 25.0099 10.8691ZM12.3807 2.33223C12.7327 2.11221 13.1728 2.0242 13.6568 2.0242C15.813 2.0242 18.4973 3.78438 21.1376 6.42464C19.8614 7.78878 18.6293 9.32893 17.3972 11.0451C15.329 11.2211 13.3488 11.5292 11.5006 11.9692C11.2806 11.1771 11.1486 10.385 11.0165 9.59296C10.4005 5.85258 10.8845 3.21232 12.3807 2.33223ZM10.0925 25.5226C5.16396 24.1144 2.21567 21.9582 2.21567 19.978C2.21567 18.2618 4.23987 16.5457 7.80423 15.1815C8.5083 14.9175 9.30038 14.6535 10.0925 14.4334C10.6645 16.2376 11.3686 18.0858 12.2487 19.978C11.3686 21.8702 10.6205 23.7624 10.0925 25.5226ZM11.0165 30.363C11.1486 29.615 11.3246 28.8229 11.5006 27.9868C13.3488 28.3828 15.329 28.6909 17.3972 28.9109C18.5853 30.6271 19.8614 32.1672 21.1376 33.5314C18.4973 36.1276 15.813 37.9318 13.6568 37.9318C13.1728 37.9318 12.7767 37.8438 12.3807 37.6238C10.8845 36.7877 10.4005 34.1034 11.0165 30.363Z" fill="#FCFEF9"/>
</g>
</g>
<defs>
<clipPath id="clip0_485_1230">
<rect width="45" height="40" fill="white" transform="translate(0.147461)"/>
</clipPath>
</defs>
</svg>
