<svg width="54" height="40" viewBox="0 0 54 40" fill="none" xmlns="http://www.w3.org/2000/svg">
<g id="devicon:sass" clip-path="url(#clip0_485_1220)">
<path id="Vector" fill-rule="evenodd" clip-rule="evenodd" d="M0.147461 16.6795C0.147461 16.979 0.235567 17.1766 0.284941 17.3687C0.60672 18.6181 1.29837 19.6903 2.119 20.6684C3.28779 22.0621 4.71919 23.1842 6.1855 24.2393C7.45729 25.1543 8.75505 26.0489 10.0319 26.957C10.2512 27.1129 10.4584 27.2923 10.6964 27.4835C10.4916 27.5943 10.3214 27.6918 10.1443 27.7817C8.45923 28.6371 6.838 29.596 5.3436 30.7576C4.44296 31.4579 3.57211 32.2021 2.95707 33.1746C1.96747 34.7388 1.61717 36.4052 2.3548 38.1845C2.57017 38.7042 2.89876 39.1532 3.36227 39.485C3.51252 39.5923 3.68107 39.6988 3.85686 39.7406C4.30718 39.8466 4.76601 39.9161 5.22186 40L6.51281 39.9991C7.94039 39.8718 9.23985 39.3823 10.4142 38.5713C12.2495 37.3036 13.486 35.6039 14.0176 33.4225C14.4041 31.837 14.4198 30.2498 13.9644 28.6716C13.9208 28.5254 13.8705 28.3812 13.8137 28.2397C13.7584 28.0978 13.6932 27.9598 13.6166 27.783L16.5433 26.0987L16.5871 26.1362C16.5339 26.3104 16.4773 26.4842 16.4292 26.6601C16.0815 27.9312 15.8504 29.2245 15.9334 30.5438C16.0219 31.9495 16.4139 33.2653 17.2362 34.4397C17.9011 35.3897 19.4853 35.425 20.1918 34.4717C20.4425 34.133 20.6856 33.779 20.8682 33.4012C21.3453 32.4151 21.7871 31.4115 22.243 30.4147L22.3225 30.2324C22.2898 30.7044 22.2515 31.1188 22.234 31.5337C22.2068 32.1816 22.2447 32.8257 22.466 33.4421C22.6554 33.9695 22.9776 34.3635 23.5811 34.4329C23.994 34.4802 24.323 34.2911 24.6265 34.0512C25.0966 33.6794 25.4863 33.2158 25.7719 32.6885C26.581 31.2015 27.4118 29.7233 28.1452 28.1988C28.9386 26.5498 29.6324 24.8527 30.3691 23.1756L30.4909 22.8783C30.665 23.5629 30.7863 24.2333 31.0097 24.8681C31.2694 25.6046 31.5907 26.3236 31.9406 27.0226C32.1062 27.3528 32.087 27.567 31.8576 27.8439C30.8974 29.0026 29.9537 30.1753 29.0092 31.3467C28.8003 31.6053 28.5921 31.8685 28.418 32.151C28.3124 32.3293 28.243 32.5268 28.2137 32.732C28.1844 32.9209 28.2294 33.1139 28.3391 33.2704C28.4489 33.427 28.6149 33.5349 28.8024 33.5716C29.1808 33.6532 29.5688 33.6808 29.955 33.6538C31.2732 33.5567 32.4701 33.0937 33.5282 32.309C34.8992 31.2926 35.3393 29.9056 35.0073 28.2618C34.9175 27.8158 34.7587 27.3822 34.6042 26.9524C34.5348 26.7585 34.5301 26.6226 34.6566 26.442C35.7526 24.8757 36.689 23.214 37.5598 21.5139C37.5943 21.447 37.6296 21.3802 37.69 21.3086C37.9722 22.7782 38.397 24.1946 39.1581 25.4798C38.7699 25.8542 38.3855 26.1937 38.0378 26.5677C37.2721 27.3915 36.6081 28.2861 36.2616 29.377C36.1126 29.8473 35.9981 30.3252 36.0645 30.8275C36.1676 31.6074 36.806 32.1143 37.5726 31.9367C39.213 31.5567 40.629 30.7832 41.6638 29.4128C42.3601 28.4901 42.4235 27.461 42.132 26.3828C42.0519 26.0898 41.957 25.8014 41.8549 25.4653C42.2596 25.3396 42.6542 25.1888 43.0624 25.0955C45.1816 24.6116 47.2779 24.696 49.3201 25.4619C50.5123 25.9091 51.4755 26.6576 52.0467 27.835C52.7443 29.2743 52.3587 30.64 51.003 31.5499C50.8766 31.6347 50.7319 31.7016 50.6272 31.8076C50.5936 31.8465 50.5686 31.892 50.5535 31.9411C50.5385 31.9903 50.5339 32.042 50.5399 32.093C50.5489 32.1454 50.6872 32.211 50.7668 32.2102C51.2124 32.2068 51.5738 31.9729 51.9207 31.7327C52.7898 31.1308 53.424 30.321 53.5606 29.2548L53.5875 29.1747L53.5547 28.4803C53.5415 28.4403 53.5645 28.4007 53.5615 28.3704C53.3768 26.8177 52.5481 25.6135 51.3427 24.6695C49.9466 23.5769 48.2981 23.1271 46.5547 23.056C45.1408 22.9951 43.7286 23.2126 42.3984 23.6962C42.0166 23.8346 41.6382 23.9986 41.2543 24.1533C41.2028 24.06 41.1475 23.9705 41.1019 23.8781C40.7078 23.0704 40.2302 22.2986 40.1247 21.3725C40.0498 20.7148 39.9578 20.0579 40.114 19.4075C40.2643 18.7817 40.4601 18.1666 40.6444 17.5494C40.7393 17.2316 40.6725 17.0535 40.3694 16.9104C40.2638 16.8577 40.1511 16.8207 40.0349 16.8005C39.29 16.6923 38.5554 16.7541 37.8339 16.9641C37.5785 17.0386 37.393 17.1817 37.3363 17.4646C37.304 17.6269 37.238 17.7824 37.1921 17.9425C37.0035 18.6083 36.8698 19.2869 36.5651 19.9212C35.8015 21.5122 34.9298 23.0432 34.0377 24.5631C33.9411 24.7271 33.8393 24.8881 33.7176 25.087C33.4043 24.431 33.0702 23.8423 32.9689 23.1522C32.8544 22.3718 32.7642 21.5927 32.9583 20.8183C33.1026 20.2407 33.2911 19.6737 33.4648 19.1037C33.5469 18.8328 33.509 18.6905 33.2639 18.5478C33.14 18.4759 33 18.412 32.8604 18.3911C32.0966 18.2747 31.3162 18.3385 30.5815 18.5777C30.3504 18.6526 30.2291 18.8022 30.1585 19.0407C29.9507 19.7444 29.7737 20.4652 29.4821 21.1344C28.3014 23.8436 27.0867 26.5387 25.8732 29.2335C25.6199 29.7962 25.3233 30.3393 25.0377 30.8871C24.9653 31.026 24.8597 31.1482 24.7695 31.2786C24.6972 31.1929 24.6691 31.1342 24.6695 31.0754C24.6716 30.7291 24.6303 30.3725 24.6963 30.0377C24.8989 29.0251 25.1228 28.0169 25.368 27.0137C25.568 26.1847 25.8008 25.3635 26.0226 24.5401C26.0971 24.2644 26.0983 24.0067 25.9004 23.775C25.568 23.3869 24.8734 23.3017 24.4614 23.6008L24.2792 23.7039L24.3145 23.4099C24.4013 22.7799 24.4188 22.152 24.246 21.5314C24.0306 20.7578 23.479 20.3127 22.6771 20.3374C22.3034 20.3489 21.911 20.4128 21.5649 20.5491C20.1097 21.1199 18.9907 22.1307 18.0381 23.3469C17.9498 23.4598 17.8404 23.5544 17.7159 23.6255C16.4846 24.3087 15.2494 24.9835 14.0146 25.6608L12.6402 26.4143C12.2716 26.0625 11.9367 25.6974 11.5566 25.3877C10.3959 24.4404 9.21644 23.5164 8.04765 22.5797C7.01165 21.7495 6.00801 20.8848 5.24017 19.7853C4.66897 18.9674 4.30079 18.0725 4.26547 17.0612C4.22077 15.7726 4.58597 14.5952 5.24144 13.4992C6.07994 12.0969 7.22362 10.9714 8.48094 9.95208C9.81105 8.87436 11.2497 7.95936 12.7407 7.12402C14.8267 5.95557 16.9723 4.9213 19.2729 4.23846C21.6317 3.53816 24.0251 3.13731 26.4938 3.41675C27.4642 3.52666 28.4065 3.74902 29.2719 4.22398C29.9346 4.58734 30.4781 5.06315 30.7309 5.8069C30.9804 6.53873 30.9727 7.28036 30.7999 8.02368C30.4487 9.52908 29.6251 10.77 28.5887 11.8788C26.8887 13.6964 24.8151 14.9339 22.4805 15.7513C21.1381 16.2219 19.7415 16.5201 18.3241 16.6386C17.1626 16.7362 16.0253 16.6331 14.9255 16.2288C14.1972 15.9609 13.563 15.5511 13.0531 14.9564C12.962 14.8499 12.8454 14.7345 12.6756 14.8342C12.5091 14.9322 12.4798 15.0906 12.5355 15.2512C12.6287 15.5179 12.7147 15.7956 12.8599 16.0342C13.2246 16.6327 13.7567 17.0667 14.3423 17.439C15.4673 18.1551 16.7246 18.3958 18.0283 18.4516C20.0067 18.5372 21.9369 18.2416 23.8399 17.7104C26.5567 16.9521 28.919 15.6129 30.8135 13.5C32.3909 11.7408 33.5176 9.75528 33.7589 7.35788C33.8768 6.18773 33.7512 5.04143 33.2039 3.97393C32.6101 2.81741 31.666 1.95736 30.5373 1.36483C28.8935 0.502226 27.1194 0 25.2884 0H23.4539C21.2363 0 19.0924 0.635982 17.0085 1.39465C15.4311 1.96929 13.8844 2.64744 12.3827 3.39801C9.11258 5.03333 6.06717 7.00518 3.56572 9.71651C2.31947 11.0673 1.26432 12.5578 0.65737 14.3128C0.47418 14.8368 0.31637 15.3693 0.184491 15.9085M12.0337 31.2492C11.892 33.1486 11.0318 34.6885 9.6259 35.9358C8.83507 36.6369 7.92804 37.1362 6.87162 37.3117C6.48855 37.3751 6.09654 37.3905 5.72496 37.2316C5.19505 37.005 5.0763 36.5343 5.06608 36.0329C5.05033 35.2338 5.32998 34.5113 5.71347 33.8238C6.21402 32.9275 6.94781 32.2443 7.7314 31.6061C8.96574 30.6004 10.3048 29.7493 11.6762 28.9459L11.7796 28.9033C11.9916 29.6871 12.0924 30.4611 12.0337 31.2492ZM22.7418 22.9942C22.6418 23.6008 22.5166 24.2078 22.3396 24.7956C21.7275 26.8305 20.9414 28.8024 20.0914 30.7478C19.9343 31.1077 19.7057 31.4362 19.507 31.7774C19.4732 31.8298 19.4327 31.8777 19.3865 31.9197C19.1405 32.1629 18.9073 32.1501 18.783 31.8319C18.6383 31.4622 18.5493 31.0664 18.4727 30.675C18.4212 30.4121 18.4335 30.1361 18.4174 29.8669C18.434 27.9525 19.0175 26.2129 20.0075 24.5933C20.4157 23.9254 20.8601 23.289 21.539 22.8664C21.7501 22.735 21.9786 22.6338 22.2178 22.5657C22.5796 22.4638 22.8018 22.6313 22.7418 22.9942ZM30.0474 32.3094L32.6731 29.2411C32.7825 30.3806 30.8471 32.6553 30.0474 32.3094ZM38.4336 30.2447C38.2481 30.3512 38.0459 30.4279 37.8556 30.5263C37.6815 30.6166 37.6241 30.5254 37.619 30.3755C37.6164 30.2717 37.6297 30.1681 37.6585 30.0684C38.0131 28.8169 38.6656 27.7485 39.6365 26.8795L39.7046 26.8446C40.1664 28.1374 39.6326 29.5572 38.4336 30.2447Z" fill="#FCFEF9"/>
</g>
<defs>
<clipPath id="clip0_485_1220">
<rect width="53.44" height="40" fill="white" transform="translate(0.147461)"/>
</clipPath>
</defs>
</svg>
