<svg width="41" height="40" viewBox="0 0 41 40" fill="none" xmlns="http://www.w3.org/2000/svg">
<g id="vscode-icons:file-type-node" clip-path="url(#clip0_485_1207)">
<path id="Vector" d="M20.6511 40C20.1108 40.0002 19.5799 39.8583 19.1119 39.5886L14.2137 36.6928C13.4827 36.2842 13.8389 36.1399 14.0807 36.0557C14.8582 35.8158 15.6026 35.4799 16.2966 35.0556C16.3547 35.0288 16.4187 35.0172 16.4825 35.022C16.5463 35.0267 16.6079 35.0476 16.6614 35.0828L20.4251 37.3157C20.4952 37.3527 20.5733 37.3721 20.6525 37.3721C20.7318 37.3721 20.8099 37.3527 20.88 37.3157L35.5572 28.8556C35.6259 28.8145 35.6827 28.7563 35.7221 28.6866C35.7615 28.617 35.782 28.5384 35.7818 28.4584V11.5353C35.7819 11.4541 35.761 11.3742 35.7211 11.3034C35.6813 11.2326 35.6238 11.1732 35.5544 11.131L20.8771 2.67805C20.8079 2.63913 20.7298 2.61868 20.6504 2.61868C20.571 2.61868 20.4929 2.63913 20.4237 2.67805L5.75504 11.1339C5.68507 11.1752 5.62697 11.2339 5.58637 11.3042C5.54577 11.3745 5.52404 11.4541 5.52329 11.5353V28.4513C5.52349 28.531 5.54493 28.6093 5.5854 28.6781C5.62587 28.7469 5.68392 28.8037 5.75361 28.8427L9.77911 31.1627C11.9607 32.2513 13.2968 30.9684 13.2968 29.6799V12.9782C13.2968 12.8645 13.342 12.7555 13.4225 12.6751C13.503 12.5948 13.6121 12.5496 13.7259 12.5496H15.5856C15.6994 12.5496 15.8086 12.5948 15.8891 12.6751C15.9696 12.7555 16.0148 12.8645 16.0148 12.9782V29.6813C16.0148 32.5885 14.4298 34.2528 11.6688 34.2528C10.4778 34.2735 9.30534 33.9554 8.2885 33.3356L4.43037 31.1256C3.962 30.8532 3.57337 30.4629 3.30327 29.9936C3.03317 29.5243 2.89106 28.9925 2.89112 28.4513V11.5353C2.88973 10.9932 3.03124 10.4603 3.30143 9.9901C3.57162 9.51991 3.96098 9.12902 4.43037 8.85671L19.109 0.393736C19.5818 0.1354 20.1122 0 20.6511 0C21.1901 0 21.7204 0.1354 22.1932 0.393736L36.8704 8.85671C37.3388 9.12856 37.7275 9.51832 37.9978 9.98708C38.2682 10.4558 38.4107 10.9872 38.4111 11.5282V28.4513C38.4103 28.9925 38.2677 29.5242 37.9974 29.9933C37.7271 30.4625 37.3386 30.8528 36.8704 31.1256L22.1932 39.5886C21.7244 39.8587 21.1924 40.0006 20.6511 40Z" fill="#FCFEF9"/>
<path id="Vector_2" d="M17.9314 22.7804C17.9314 22.6673 17.9765 22.5588 18.0566 22.4788C18.1368 22.3989 18.2456 22.3539 18.359 22.3539H20.2506C20.3517 22.3543 20.4494 22.3903 20.5264 22.4556C20.6033 22.5209 20.6546 22.6113 20.6711 22.7108C20.9562 24.6314 21.8115 25.5996 25.6788 25.5996C28.7592 25.5996 30.072 24.9044 30.072 23.2737C30.072 22.334 29.7 21.636 24.9119 21.1683C20.9092 20.773 18.4346 19.8888 18.4346 16.6986C18.4346 13.7557 20.922 12 25.0915 12C29.7769 12 32.0962 13.6221 32.3898 17.1023C32.3943 17.1604 32.3868 17.2188 32.3678 17.2739C32.3487 17.329 32.3186 17.3797 32.2792 17.4227C32.2398 17.4657 32.192 17.5002 32.1387 17.5241C32.0854 17.548 32.0277 17.5607 31.9693 17.5615H30.0649C29.9694 17.5602 29.877 17.527 29.8026 17.4672C29.7282 17.4074 29.676 17.3245 29.6544 17.2317C29.1996 15.2115 28.0864 14.5661 25.0929 14.5661C21.7288 14.5661 21.3382 15.7347 21.3382 16.6104C21.3382 17.671 21.8001 17.9809 26.3416 18.5794C30.8361 19.1723 32.9714 20.011 32.9714 23.1614C32.9714 26.3403 30.3143 28.16 25.6802 28.16C19.2728 28.1685 17.9314 25.2385 17.9314 22.7804Z" fill="#FCFEF9"/>
</g>
<defs>
<clipPath id="clip0_485_1207">
<rect width="40" height="40" fill="white" transform="translate(0.651367)"/>
</clipPath>
</defs>
</svg>
