<svg width="24" height="25" viewBox="0 0 24 25" fill="none" xmlns="http://www.w3.org/2000/svg">
<g id="uil:facebook" clip-path="url(#clip0_278_4969)">
<path id="Vector" d="M22.68 0.5H1.32C0.969914 0.5 0.634167 0.639071 0.386619 0.886619C0.139071 1.13417 0 1.46991 0 1.82V23.18C0 23.5301 0.139071 23.8658 0.386619 24.1134C0.634167 24.3609 0.969914 24.5 1.32 24.5H12.816V15.2H9.696V11.6H12.816V8.9C12.7514 8.26611 12.8262 7.62575 13.0353 7.02385C13.2443 6.42194 13.5825 5.87305 14.0262 5.41569C14.4698 4.95833 15.0081 4.60357 15.6034 4.37629C16.1987 4.149 16.8364 4.0547 17.472 4.1C18.406 4.09425 19.3395 4.14233 20.268 4.244V7.484H18.36C16.848 7.484 16.56 8.204 16.56 9.248V11.564H20.16L19.692 15.164H16.56V24.5H22.68C22.8533 24.5 23.025 24.4659 23.1851 24.3995C23.3453 24.3332 23.4908 24.236 23.6134 24.1134C23.736 23.9908 23.8332 23.8453 23.8995 23.6851C23.9659 23.525 24 23.3533 24 23.18V1.82C24 1.64666 23.9659 1.47501 23.8995 1.31486C23.8332 1.15471 23.736 1.00919 23.6134 0.886619C23.4908 0.764046 23.3453 0.666815 23.1851 0.600479C23.025 0.534143 22.8533 0.5 22.68 0.5Z" fill="#FCFEF9"/>
</g>
<defs>
<clipPath id="clip0_278_4969">
<rect width="24" height="24" fill="white" transform="translate(0 0.5)"/>
</clipPath>
</defs>
</svg>
