<svg width="51" height="49" viewBox="0 0 51 49" fill="none" xmlns="http://www.w3.org/2000/svg">
<g id="Frame 54">
<g id="Vector">
<path d="M38.431 48.1509C38.159 48.1509 37.921 48.0489 37.717 47.8449C37.513 47.6749 37.411 47.4369 37.411 47.1309C37.411 46.5529 37.785 46.1959 38.5329 46.0599C39.8929 45.7879 41.1169 45.2609 42.2049 44.4789C43.2929 43.6969 43.8369 42.4899 43.8369 40.8579V31.015C43.8369 28.465 44.9419 26.2891 47.1519 24.4871C46.1659 23.7391 45.3669 22.8211 44.7549 21.7331C44.1429 20.6111 43.8369 19.3701 43.8369 18.0101V7.30022C43.8369 5.80424 43.3269 4.64825 42.3069 3.83225C41.2869 2.98226 40.0289 2.40426 38.5329 2.09827C37.785 1.99627 37.411 1.63927 37.411 1.02728C37.411 0.68728 37.53 0.432281 37.768 0.262283C38.006 0.0582854 38.295 -0.0267138 38.635 0.00728549C40.3689 0.313283 42.0179 1.06128 43.5819 2.25127C45.1799 3.40726 45.9789 5.09024 45.9789 7.30022V18.0611C45.9789 19.4211 46.3189 20.5771 46.9989 21.5291C47.7129 22.4471 48.6139 23.1101 49.7018 23.5181C50.1778 23.7561 50.4158 24.0791 50.4158 24.4871C50.4158 24.7251 50.3648 24.9121 50.2628 25.0481C50.1608 25.1841 49.9908 25.3201 49.7528 25.4561C48.3249 26.1701 47.3389 26.9521 46.7949 27.802C46.2509 28.652 45.9789 29.706 45.9789 30.964V40.8579C45.9789 42.3879 45.5539 43.6799 44.7039 44.7339C43.8879 45.7879 42.9189 46.5869 41.7969 47.1309C40.6749 47.6749 39.6039 48.0149 38.5839 48.1509H38.431Z" fill="#E41476"/>
<path d="M11.7676 48.1509C10.7476 48.0149 9.67663 47.6749 8.55464 47.1309C7.46665 46.5869 6.51466 45.7879 5.69867 44.7339C4.88268 43.7139 4.47468 42.4219 4.47468 40.8579V30.148C4.47468 28.822 4.11768 27.683 3.40369 26.7311C2.7237 25.7451 1.8397 25.0481 0.751713 24.6401C0.275718 24.4701 0.0377197 24.1471 0.0377197 23.6711C0.0377197 23.2291 0.258718 22.9231 0.700714 22.7531C2.1287 22.0391 3.11469 21.2571 3.65869 20.4071C4.20268 19.5231 4.47468 18.4691 4.47468 17.2451V7.30022C4.47468 5.09024 5.25667 3.39026 6.82066 2.20027C8.41864 1.01028 10.0846 0.279284 11.8186 0.00728549H11.9206C12.2266 0.00728549 12.4816 0.109284 12.6856 0.313282C12.8896 0.517282 12.9916 0.75528 12.9916 1.02728C12.9916 1.63927 12.6346 1.99627 11.9206 2.09827C10.5606 2.33627 9.33663 2.86326 8.24864 3.67925C7.16065 4.49525 6.61666 5.70224 6.61666 7.30022V17.1941C6.61666 19.7781 5.49467 21.9371 3.25069 23.6711C4.27068 24.4191 5.08667 25.3541 5.69867 26.4761C6.31066 27.598 6.61666 28.839 6.61666 30.199V40.8579C6.61666 42.4899 7.16065 43.6969 8.24864 44.4789C9.33663 45.2949 10.5606 45.8219 11.9206 46.0599C12.6346 46.2299 12.9916 46.5869 12.9916 47.1309C12.9916 47.4709 12.8726 47.7429 12.6346 47.9469C12.3966 48.1509 12.1076 48.2189 11.7676 48.1509Z" fill="#E41476"/>
</g>
<path id="Vector 4" d="M19.862 7.00568C19.862 5.96778 20.8445 4.96041 21.827 4.34988C22.8095 3.73935 23.2393 3.40355 24.1604 2.54881C25.1429 1.69407 25.0201 1.14459 25.1429 1.14459C25.2657 1.14459 25.1429 1.69141 26.1868 2.54881C26.9301 3.15934 27.2021 3.47789 28.5816 4.34988C29.4413 4.89327 30.5466 6.3022 30.5466 7.55516C30.5466 9.49926 29.1957 10.6689 27.2307 11.3404C26.2713 11.6683 24.9587 11.7678 23.4236 11.6457C21.8884 11.5236 21.3703 11.1573 18.941 11.1573C18.3883 11.1573 16.3005 11.2794 14.8268 12.6226C13.3531 13.9657 12.6162 15.5531 12.6162 17.5068C12.6162 19.4605 13.7215 21.3531 15.0724 22.33C16.4233 23.3068 17.5527 23.6121 18.6953 23.6121C18.7555 23.6121 18.8156 23.6121 18.8156 23.6121C18.8156 23.6121 18.8156 23.6121 18.8156 23.6121C26.7394 23.6121 25.1211 12.6226 32.8186 12.6226C32.8787 12.6226 31.5905 12.6226 32.9414 12.6226C34.2923 12.6226 36.1124 13.2941 37.1783 14.3931C38.2443 15.4921 39.0205 16.9573 39.0205 18.911C39.0205 20.8647 38.1608 22.2689 37.0555 23.3679C35.9502 24.4668 34.0467 24.9782 33.6168 25.0774C33.187 25.1766 28.8886 26.1763 23.6078 26.1763C20.4049 26.1763 17.4504 25.9068 15.6213 25.6947C14.8254 25.6024 14.2235 26.4419 14.5835 27.1577L24.3237 46.5264C24.6872 47.2492 25.7193 47.2481 26.0813 46.5246L31.0992 36.4943" stroke="#FCFEF9" stroke-width="1.84336" stroke-linecap="round"/>
</g>
</svg>
